HIERARCHY
ROOT hip
{
  OFFSET 5.51535 103.731 -2.80141
  CHANNELS 6 Xposition Yposition Zposition Zrotation Xrotation Yrotation
  JOINT abdomen
  {
    OFFSET 0 -1.186 -1.5018
    CHANNELS 6 Xposition Yposition Zposition Zrotation Xrotation Yrotation
    JOINT abdomen2
    {
      OFFSET 0 9.964 0.2134
      CHANNELS 6 Xposition Yposition Zposition Zrotation Xrotation Yrotation
      JOINT chest
      {
        OFFSET 0 13.134 -3.2573
        CHANNELS 6 Xposition Yposition Zposition Zrotation Xrotation Yrotation
        JOINT neck
        {
          OFFSET 0 20.686 -1.6905
          CHANNELS 6 Xposition Yposition Zposition Zrotation Xrotation Yrotation
          JOINT head
          {
            OFFSET 0 7.23801 -0.1237
            CHANNELS 6 Xposition Yposition Zposition Zrotation Xrotation Yrotation
            End Site
            {
              OFFSET 0 0 0
            }
          }
        }
        JOINT lCollar
        {
          OFFSET 1.7069 20.075 5.0056
          CHANNELS 6 Xposition Yposition Zposition Zrotation Xrotation Yrotation
          JOINT lShldr
          {
            OFFSET 13.6458 -0.0470195 -4.849
            CHANNELS 6 Xposition Yposition Zposition Zrotation Xrotation Yrotation
            JOINT lForeArm
            {
              OFFSET 28.3255 -0.97589 2.2888
              CHANNELS 6 Xposition Yposition Zposition Zrotation Xrotation Yrotation
              JOINT lHand
              {
                OFFSET 22.1583 -0.529998 10.8316
                CHANNELS 6 Xposition Yposition Zposition Zrotation Xrotation Yrotation
                JOINT lThumb1
                {
                  OFFSET 0.786 0.111997 2.5817
                  CHANNELS 6 Xposition Yposition Zposition Zrotation Xrotation Yrotation
                  JOINT lThumb2
                  {
                    OFFSET 0.360097 -0.877999 4.2331
                    CHANNELS 6 Xposition Yposition Zposition Zrotation Xrotation Yrotation
                    JOINT lThumb2_End
                    {
                      OFFSET 1.8127 -1.21601 2.2227
                      CHANNELS 6 Xposition Yposition Zposition Zrotation Xrotation Yrotation
                      End Site
                      {
                        OFFSET 0.0180981 -0.012195 0.0222007
                      }
                    }
                  }
                }
                JOINT lCarpal1
                {
                  OFFSET 0.9571 1.114 1.7695
                  CHANNELS 6 Xposition Yposition Zposition Zrotation Xrotation Yrotation
                  JOINT lIndex1
                  {
                    OFFSET 4.12461 0.486992 4.1451
                    CHANNELS 6 Xposition Yposition Zposition Zrotation Xrotation Yrotation
                    JOINT lIndex2
                    {
                      OFFSET 3.4052 -1.45401 2.7682
                      CHANNELS 6 Xposition Yposition Zposition Zrotation Xrotation Yrotation
                      JOINT lIndex2_End
                      {
                        OFFSET 1.45309 -1.79499 1.2713
                        CHANNELS 6 Xposition Yposition Zposition Zrotation Xrotation Yrotation
                        End Site
                        {
                          OFFSET 0.0144979 -0.0179083 0.0126995
                        }
                      }
                    }
                  }
                  JOINT lMid1
                  {
                    OFFSET 5.6954 0.209987 2.1184
                    CHANNELS 6 Xposition Yposition Zposition Zrotation Xrotation Yrotation
                    JOINT lMid2
                    {
                      OFFSET 3.9766 -1.53999 2.3863
                      CHANNELS 6 Xposition Yposition Zposition Zrotation Xrotation Yrotation
                      JOINT lMid2_End
                      {
                        OFFSET 1.4042 -1.926 1.125
                        CHANNELS 6 Xposition Yposition Zposition Zrotation Xrotation Yrotation
                        End Site
                        {
                          OFFSET 0.013999 -0.0193044 0.011301
                        }
                      }
                    }
                  }
                }
                JOINT lCarpal2
                {
                  OFFSET 2.0956 0.66 -0.3894
                  CHANNELS 6 Xposition Yposition Zposition Zrotation Xrotation Yrotation
                  JOINT lRing1
                  {
                    OFFSET 5.0395 -0.090013 2.4971
                    CHANNELS 6 Xposition Yposition Zposition Zrotation Xrotation Yrotation
                    JOINT lRing2
                    {
                      OFFSET 3.7921 -1.55199 1.4806
                      CHANNELS 6 Xposition Yposition Zposition Zrotation Xrotation Yrotation
                      JOINT lRing2_End
                      {
                        OFFSET 1.4655 -1.808 0.9609
                        CHANNELS 6 Xposition Yposition Zposition Zrotation Xrotation Yrotation
                        End Site
                        {
                          OFFSET 0.0147015 -0.0181014 0.00959957
                        }
                      }
                    }
                  }
                  JOINT lPinky1
                  {
                    OFFSET 4.9141 -1.269 0.3591
                    CHANNELS 6 Xposition Yposition Zposition Zrotation Xrotation Yrotation
                    JOINT lPinky2
                    {
                      OFFSET 3.1477 -1.685 0.8462
                      CHANNELS 6 Xposition Yposition Zposition Zrotation Xrotation Yrotation
                      JOINT lPinky2_End
                      {
                        OFFSET 0.805498 -1.58501 0.795499
                        CHANNELS 6 Xposition Yposition Zposition Zrotation Xrotation Yrotation
                        End Site
                        {
                          OFFSET 0.00809703 -0.0157944 0.00799848
                        }
                      }
                    }
                  }
                }
              }
            }
          }
        }
        JOINT rCollar
        {
          OFFSET -1.7069 20.075 5.0056
          CHANNELS 6 Xposition Yposition Zposition Zrotation Xrotation Yrotation
          JOINT rShldr
          {
            OFFSET -13.6458 -0.0470107 -4.849
            CHANNELS 6 Xposition Yposition Zposition Zrotation Xrotation Yrotation
            JOINT rForeArm
            {
              OFFSET -28.3255 -0.975895 2.2888
              CHANNELS 6 Xposition Yposition Zposition Zrotation Xrotation Yrotation
              JOINT rHand
              {
                OFFSET -22.1583 -0.530007 10.8316
                CHANNELS 6 Xposition Yposition Zposition Zrotation Xrotation Yrotation
                JOINT rThumb1
                {
                  OFFSET -0.785997 0.112005 2.5817
                  CHANNELS 6 Xposition Yposition Zposition Zrotation Xrotation Yrotation
                  JOINT rThumb2
                  {
                    OFFSET -0.360106 -0.877994 4.2331
                    CHANNELS 6 Xposition Yposition Zposition Zrotation Xrotation Yrotation
                    JOINT rThumb2_End
                    {
                      OFFSET -1.8127 -1.216 2.2227
                      CHANNELS 6 Xposition Yposition Zposition Zrotation Xrotation Yrotation
                      End Site
                      {
                        OFFSET -0.0180972 -0.0121973 0.0222005
                      }
                    }
                  }
                }
                JOINT rCarpal1
                {
                  OFFSET -0.9571 1.114 1.7695
                  CHANNELS 6 Xposition Yposition Zposition Zrotation Xrotation Yrotation
                  JOINT rIndex1
                  {
                    OFFSET -4.1246 0.487011 4.1451
                    CHANNELS 6 Xposition Yposition Zposition Zrotation Xrotation Yrotation
                    JOINT rIndex2
                    {
                      OFFSET -3.4052 -1.45401 2.7682
                      CHANNELS 6 Xposition Yposition Zposition Zrotation Xrotation Yrotation
                      JOINT rIndex2_End
                      {
                        OFFSET -1.4531 -1.795 1.2713
                        CHANNELS 6 Xposition Yposition Zposition Zrotation Xrotation Yrotation
                        End Site
                        {
                          OFFSET -0.0145077 -0.0180048 0.0127017
                        }
                      }
                    }
                  }
                  JOINT rMid1
                  {
                    OFFSET -5.6954 0.210002 2.1184
                    CHANNELS 6 Xposition Yposition Zposition Zrotation Xrotation Yrotation
                    JOINT rMid2
                    {
                      OFFSET -3.9766 -1.54 2.3863
                      CHANNELS 6 Xposition Yposition Zposition Zrotation Xrotation Yrotation
                      JOINT rMid2_End
                      {
                        OFFSET -1.4042 -1.926 1.125
                        CHANNELS 6 Xposition Yposition Zposition Zrotation Xrotation Yrotation
                        End Site
                        {
                          OFFSET -0.0139948 -0.0192916 0.0112994
                        }
                      }
                    }
                  }
                }
                JOINT rCarpal2
                {
                  OFFSET -2.0956 0.66 -0.3894
                  CHANNELS 6 Xposition Yposition Zposition Zrotation Xrotation Yrotation
                  JOINT rRing1
                  {
                    OFFSET -5.03951 -0.0899879 2.4971
                    CHANNELS 6 Xposition Yposition Zposition Zrotation Xrotation Yrotation
                    JOINT rRing2
                    {
                      OFFSET -3.7921 -1.55201 1.4806
                      CHANNELS 6 Xposition Yposition Zposition Zrotation Xrotation Yrotation
                      JOINT rRing2_End
                      {
                        OFFSET -1.4655 -1.808 0.960901
                        CHANNELS 6 Xposition Yposition Zposition Zrotation Xrotation Yrotation
                        End Site
                        {
                          OFFSET -0.0146934 -0.0180999 0.00959832
                        }
                      }
                    }
                  }
                  JOINT rPinky1
                  {
                    OFFSET -4.91411 -1.26899 0.359202
                    CHANNELS 6 Xposition Yposition Zposition Zrotation Xrotation Yrotation
                    JOINT rPinky2
                    {
                      OFFSET -3.14769 -1.68501 0.846199
                      CHANNELS 6 Xposition Yposition Zposition Zrotation Xrotation Yrotation
                      JOINT rPinky2_End
                      {
                        OFFSET -0.805498 -1.585 0.7955
                        CHANNELS 6 Xposition Yposition Zposition Zrotation Xrotation Yrotation
                        End Site
                        {
                          OFFSET -0.00810035 -0.0158035 0.00800029
                        }
                      }
                    }
                  }
                }
              }
            }
          }
        }
      }
    }
  }
  JOINT lThigh
  {
    OFFSET 8.367 -8.2066 0.5982
    CHANNELS 6 Xposition Yposition Zposition Zrotation Xrotation Yrotation
    JOINT lShin
    {
      OFFSET 2.1923 -43.463 -0.4932
      CHANNELS 6 Xposition Yposition Zposition Zrotation Xrotation Yrotation
      JOINT lFoot
      {
        OFFSET 0.733301 -45.8593 -2.6451
        CHANNELS 6 Xposition Yposition Zposition Zrotation Xrotation Yrotation
        End Site
        {
          OFFSET 2.6618 -4.2699 12.3931
        }
      }
    }
  }
  JOINT rThigh
  {
    OFFSET -8.367 -8.2066 0.5982
    CHANNELS 6 Xposition Yposition Zposition Zrotation Xrotation Yrotation
    JOINT rShin
    {
      OFFSET -2.1923 -43.463 -0.4931
      CHANNELS 6 Xposition Yposition Zposition Zrotation Xrotation Yrotation
      JOINT rFoot
      {
        OFFSET -0.733299 -45.8593 -2.6451
        CHANNELS 6 Xposition Yposition Zposition Zrotation Xrotation Yrotation
        End Site
        {
          OFFSET -2.6618 -4.2699 12.3931
        }
      }
    }
  }
}
MOTION
Frames:	4
Frame Time:	0.0333333
-26.9815 152.61 -20.4856 3.50302 -16.689 1.21343 -6.50628e-007 -1.18599 -1.5018 1.22279 0.690579 -1.34461 -9.83827e-007 9.96399 0.213397 2.46172 1.35201 -2.70394 7.4718e-007 13.134 -3.2573 2.46172 1.35201 -2.70394 8.8215e-007 20.686 -1.6905 -8.68563 18.3677 18.3322 -9.73022e-007 7.23801 -0.1237 -16.0345 3.14258 16.3503 1.7069 20.075 5.0056 23.9566 -0.951278 -9.21005 13.6458 -0.04702 -4.84901 -59.9104 2.59359 -43.9452 28.3255 -0.975895 2.2888 -40.4825 -11.0533 -94.7157 22.1583 -0.529979 10.8316 -105.007 -47.2473 -57.4734 0.786003 0.111998 2.5817 21.103 47.7302 -19.8089 0.360095 -0.878001 4.23309 -1.86132 -0.167763 -3.40474 1.81269 -1.21601 2.2227 6.48474 1.48391 12.0602 0.9571 1.114 1.7695 3.53113e-031 3.18055e-015 -6.36111e-015 4.1246 0.486993 4.1451 0.913773 2.08747 18.8776 3.4052 -1.45401 2.7682 -47.1271 10.6016 23.809 1.4531 -1.79499 1.27131 -31.5832 9.42859 15.3139 5.6954 0.209986 2.1184 -9.82586 1.49479 11.7079 3.9766 -1.53999 2.3863 -43.8283 12.176 22.7531 1.4042 -1.926 1.12499 -29.8766 10.3826 14.8392 2.0956 0.66 -0.3894 3.53113e-031 3.18055e-015 -6.36111e-015 5.0395 -0.0900154 2.49711 -13.9881 -3.55309 12.979 3.7921 -1.55199 1.4806 -31.0425 11.1783 17.2886 1.4655 -1.808 0.960901 -32.3313 11.4092 18.0802 4.9141 -1.269 0.359104 -12.5305 -11.9969 14.5207 3.1477 -1.68501 0.8462 -25.2599 10.7794 13.7624 0.805498 -1.58501 0.7955 -24.1 10.4462 13.0661 -1.7069 20.075 5.0056 -17.4231 -0.153874 3.76927 -13.6458 -0.0470193 -4.849 65.1369 14.346 47.5618 -28.3255 -0.975882 2.28881 41.3659 5.82458 69.5981 -22.1583 -0.53001 10.8316 62.7063 -26.1836 38.358 -0.785998 0.112005 2.5817 -18.6206 47.7206 15.7074 -0.360109 -0.877992 4.2331 -0.549305 0.489919 -1.68741 -1.8127 -1.216 2.2227 -4.36038 4.90506 -14.9342 -0.9571 1.114 1.7695 -1.59028e-015 -1.59028e-015 -1.19271e-015 -4.12461 0.48701 4.14511 -21.4725 3.06206 -13.162 -3.4052 -1.45401 2.76819 38.3703 9.91478 -8.92889 -1.4531 -1.795 1.2713 43.959 10.753 -10.6738 -5.69541 0.210001 2.1184 1.17175 5.92252 -9.98085 -3.9766 -1.54 2.3863 50.2338 13.2856 -13.3618 -1.4042 -1.926 1.125 42.5958 12.1573 -10.707 -2.0956 0.66 -0.3894 -1.59028e-015 -1.59028e-015 -1.19271e-015 -5.03951 -0.0899873 2.4971 16.0092 0.909692 -5.07426 -3.7921 -1.55201 1.48061 35.8469 11.599 -10.2353 -1.4655 -1.808 0.960903 37.4022 11.9245 -10.8113 -4.91411 -1.26899 0.359208 23.5614 0.657668 -1.19302 -3.14769 -1.68501 0.846197 29.5795 11.0475 -7.86186 -0.8055 -1.585 0.795498 29.5719 11.0456 -7.8592 8.367 -8.2066 0.598202 -13.7669 -3.61295 -7.09097 2.1923 -43.4631 -0.493205 0.353471 0.0534895 1.32873 0.733302 -45.8594 -2.64511 -11.8296 -0.02363 16.0941 -8.36701 -8.2066 0.598204 -3.92447 -17.2693 7.54315 -2.1923 -43.4631 -0.49327 50.7222 60.8598 -41.7524 -0.733301 -45.8593 -2.64511 10.973 -15.4199 19.0349 
-26.6206 152.57 -20.1708 2.9337 -16.8538 -0.151941 -2.09181e-007 -1.18599 -1.5018 1.24741 0.819421 -1.32652 -1.36867e-007 9.964 0.2134 2.51382 1.60957 -2.67097 -1.96119e-006 13.134 -3.2573 2.51382 1.60957 -2.67097 -5.1567e-007 20.686 -1.6905 -8.56278 17.1737 17.9687 1.84553e-006 7.23801 -0.123702 -16.0555 2.93785 17.0773 1.7069 20.075 5.0056 24.3053 -0.953492 -9.20225 13.6458 -0.0470249 -4.84901 -60.9011 3.42948 -43.6873 28.3255 -0.975903 2.28881 -42.5426 -8.51198 -96.5629 22.1583 -0.529987 10.8316 -97.2944 -49.3885 -51.41 0.786002 0.111998 2.5817 21.3165 47.5576 -20.1429 0.360093 -0.878001 4.2331 -1.94188 -0.172511 -3.55185 1.8127 -1.21601 2.2227 6.4847 1.48385 12.0602 0.9571 1.114 1.7695 -0 0 4.77083e-015 4.1246 0.486994 4.14509 0.7989 2.13346 18.7662 3.4052 -1.45401 2.7682 -46.9353 10.601 23.7032 1.4531 -1.79499 1.27129 -31.6959 9.44536 15.3745 5.6954 0.209988 2.1184 -9.68271 1.46123 11.5229 3.9766 -1.53999 2.3863 -43.8283 12.1761 22.7531 1.4042 -1.926 1.12501 -29.4888 10.3051 14.6243 2.0956 0.66 -0.3894 -0 0 4.77083e-015 5.0395 -0.0900142 2.4971 -13.8974 -3.5229 12.8467 3.7921 -1.55199 1.4806 -30.7319 11.1198 17.0985 1.4655 -1.808 0.960895 -32.0244 11.3558 17.8916 4.9141 -1.269 0.359102 -12.1427 -11.9662 14.2511 3.1477 -1.685 0.846201 -25.1312 10.7432 13.6849 0.805498 -1.585 0.795493 -23.8162 10.3622 12.8963 -1.7069 20.075 5.0056 -17.3442 -0.153095 3.76944 -13.6458 -0.0470108 -4.849 65.5978 14.3742 47.1264 -28.3255 -0.975878 2.28879 43.3157 6.42733 70.4808 -22.1583 -0.530005 10.8316 61.8721 -25.7467 36.044 -0.785998 0.112005 2.5817 -18.5024 47.3636 15.3815 -0.360106 -0.877991 4.2331 -0.553878 0.494112 -1.70164 -1.81269 -1.216 2.2227 -4.33882 4.87344 -14.8483 -0.9571 1.114 1.7695 -1.59028e-015 4.77083e-015 6.36111e-015 -4.12461 0.48701 4.14511 -21.1486 3.03865 -12.9447 -3.4052 -1.45401 2.7682 38.1489 9.87802 -8.86139 -1.4531 -1.795 1.2713 43.6451 10.7105 -10.5739 -5.6954 0.210001 2.1184 1.23616 5.89506 -9.90586 -3.9766 -1.54 2.3863 49.8475 13.2371 -13.2244 -1.4042 -1.92599 1.125 42.3285 12.1114 -10.6167 -2.0956 0.66 -0.3894 -1.59028e-015 4.77083e-015 6.36111e-015 -5.03951 -0.0899892 2.49711 15.927 0.957839 -5.00933 -3.7921 -1.552 1.4806 35.5753 11.5406 -10.1354 -1.4655 -1.808 0.960902 37.156 11.8742 -10.7196 -4.9141 -1.26899 0.3592 23.399 0.711778 -1.12589 -3.1477 -1.68501 0.846199 29.3819 10.991 -7.79311 -0.805498 -1.585 0.795497 29.3717 10.9884 -7.78958 8.36701 -8.2066 0.598199 -13.7276 -3.50545 -7.33891 2.1923 -43.4631 -0.493206 0.353765 0.114976 1.3144 0.733301 -45.8593 -2.64511 -12.084 -0.128889 15.8908 -8.367 -8.2066 0.598201 -3.9575 -17.633 7.40142 -2.19231 -43.463 -0.492952 53.3297 61.7514 -44.3568 -0.733292 -45.8593 -2.6451 11.0643 -15.9284 19.364 
-26.3992 152.577 -19.9034 2.51288 -16.9858 -1.32718 4.15442e-007 -1.18601 -1.50179 1.26278 0.991543 -1.25749 6.99193e-007 9.964 0.213399 2.54757 1.9549 -2.5371 -3.05988e-007 13.134 -3.2573 2.54757 1.9549 -2.5371 -3.39133e-006 20.686 -1.69051 -8.17266 15.6927 17.1905 -1.32114e-006 7.23801 -0.123697 -15.467 2.71245 17.4119 1.7069 20.075 5.0056 24.4371 -0.954157 -9.19674 13.6458 -0.0470179 -4.84901 -61.5682 4.18018 -43.5678 28.3255 -0.975897 2.2888 -44.4602 -5.85016 -98.252 22.1583 -0.529992 10.8316 -89.4247 -50.7352 -45.0553 0.786003 0.111997 2.5817 21.5186 47.388 -20.4623 0.360094 -0.878001 4.2331 -2.02245 -0.177036 -3.69898 1.81269 -1.21601 2.22269 6.48476 1.48397 12.0602 0.9571 1.114 1.7695 0 3.18055e-015 -0 4.1246 0.486993 4.1451 0.684144 2.17969 18.6549 3.4052 -1.454 2.7682 -46.7435 10.6001 23.5975 1.4531 -1.79499 1.27129 -31.8087 9.46202 15.4351 5.6954 0.209987 2.1184 -9.53967 1.42724 11.338 3.9766 -1.53999 2.38631 -43.8283 12.176 22.7531 1.4042 -1.926 1.125 -29.1151 10.2289 14.4177 2.0956 0.66 -0.3894 0 3.18055e-015 -0 5.0395 -0.0900149 2.4971 -13.8066 -3.4929 12.7144 3.7921 -1.55199 1.48061 -30.4262 11.0612 16.9116 1.4655 -1.808 0.960894 -31.7222 11.3022 17.706 4.9141 -1.269 0.3591 -11.7548 -11.9373 13.9814 3.1477 -1.685 0.846196 -25.0026 10.7068 13.6075 0.805498 -1.58501 0.795495 -23.5327 10.2775 12.7271 -1.7069 20.075 5.0056 -17.1559 -0.15094 3.74913 -13.6458 -0.0470075 -4.849 66.0675 14.339 46.6535 -28.3255 -0.975893 2.28879 45.2133 7.3078 71.4405 -22.1583 -0.530007 10.8316 60.4777 -25.309 33.4668 -0.785996 0.112005 2.5817 -18.3419 46.9545 15.0103 -0.3601 -0.877995 4.2331 -0.55846 0.498335 -1.71588 -1.8127 -1.216 2.2227 -4.31722 4.84187 -14.7624 -0.9571 1.114 1.7695 3.18055e-015 3.18055e-015 3.97569e-016 -4.12461 0.487011 4.14511 -20.8055 3.01352 -12.7249 -3.4052 -1.45401 2.7682 37.8753 9.83224 -8.77816 -1.4531 -1.79499 1.2713 43.3313 10.6675 -10.4742 -5.69541 0.21 2.11841 1.30062 5.86764 -9.83085 -3.9766 -1.54 2.38631 49.4296 13.1837 -13.0761 -1.4042 -1.92599 1.125 42.0038 12.055 -10.5072 -2.0956 0.66 -0.3894 3.18055e-015 3.18055e-015 3.97569e-016 -5.03951 -0.0899882 2.4971 15.8448 1.00586 -4.94426 -3.7921 -1.552 1.4806 35.2727 11.4751 -10.0245 -1.4655 -1.808 0.9609 36.8852 11.8184 -10.6189 -4.9141 -1.26899 0.359199 23.2141 0.760709 -1.06757 -3.1477 -1.68501 0.846203 29.1844 10.9343 -7.72461 -0.805498 -1.585 0.795497 29.1716 10.931 -7.72018 8.36701 -8.2066 0.598204 -13.6512 -3.35868 -7.3531 2.19231 -43.4631 -0.493207 0.356258 -0.0884974 1.30109 0.733298 -45.8593 -2.6451 -11.9648 -0.255424 15.6787 -8.36701 -8.2066 0.598206 -3.95515 -17.7908 7.45176 -2.19229 -43.463 -0.493292 55.1369 62.3044 -46.1256 -0.733312 -45.8593 -2.64511 11.2148 -16.2573 19.4641 
-26.2915 152.76 -19.6267 2.2312 -17.0305 -2.16144 4.26157e-007 -1.186 -1.5018 1.28304 1.15842 -1.18203 1.28232e-006 9.96401 0.213403 2.5905 2.28985 -2.39044 -1.1628e-009 13.134 -3.2573 2.59049 2.28985 -2.39043 -9.16023e-006 20.6861 -1.69052 -7.58528 14.0768 16.1133 7.82113e-007 7.23801 -0.123698 -14.1237 2.36153 17.0514 1.7069 20.075 5.0056 24.2323 -0.96163 -9.29203 13.6458 -0.0470062 -4.849 -62.3926 5.22268 -43.4094 28.3255 -0.975895 2.28879 -46.376 -2.88858 -99.991 22.1583 -0.529984 10.8316 -80.6272 -51.4836 -37.4191 0.786003 0.111997 2.5817 21.7187 47.2176 -20.7798 0.3601 -0.877997 4.2331 -2.09921 -0.181166 -3.83914 1.81269 -1.21601 2.2227 6.48476 1.48397 12.0602 0.9571 1.114 1.7695 3.18055e-015 3.18055e-015 -0 4.1246 0.486992 4.1451 0.578733 2.22175 18.5499 3.4052 -1.45401 2.7682 -46.5517 10.5989 23.4917 1.4531 -1.79499 1.27129 -31.9216 9.47856 15.4957 5.69541 0.209986 2.1184 -9.39677 1.39278 11.1532 3.9766 -1.53999 2.3863 -43.8283 12.176 22.7531 1.4042 -1.926 1.125 -28.7418 10.1514 14.2116 2.0956 0.66 -0.3894 3.18055e-015 3.18055e-015 -0 5.03951 -0.0900154 2.49711 -13.7158 -3.46314 12.5821 3.7921 -1.55199 1.4806 -30.1305 11.0036 16.731 1.4655 -1.808 0.960906 -31.4262 11.2487 17.5244 4.9141 -1.269 0.359103 -11.3877 -11.9114 13.7359 3.1477 -1.685 0.846196 -24.8818 10.6724 13.5349 0.805497 -1.585 0.795492 -23.2581 10.1945 12.5634 -1.7069 20.075 5.0056 -16.7809 -0.147788 3.77146 -13.6458 -0.0470106 -4.849 66.5767 14.2339 45.8319 -28.3255 -0.975878 2.2888 46.9722 8.7114 72.3496 -22.1583 -0.529994 10.8316 58.6062 -24.7643 30.7675 -0.785998 0.112006 2.58169 -18.1603 46.5211 14.6212 -0.360108 -0.877992 4.2331 -0.563034 0.502515 -1.7301 -1.8127 -1.216 2.2227 -4.29555 4.81033 -14.6765 -0.9571 1.114 1.7695 -1.59028e-015 -1.59028e-015 -1.98785e-015 -4.12461 0.48701 4.14511 -20.4622 2.98972 -12.505 -3.4052 -1.45401 2.76821 37.6018 9.78602 -8.69515 -1.45309 -1.795 1.27129 42.959 10.6158 -10.3563 -5.69541 0.21 2.11841 1.36124 5.83022 -9.73962 -3.9766 -1.54 2.3863 48.9807 13.1251 -12.9173 -1.4042 -1.926 1.125 41.6792 11.998 -10.3981 -2.0956 0.66 -0.3894 -1.59028e-015 -1.59028e-015 -1.98785e-015 -5.03951 -0.0899877 2.4971 15.7444 1.04699 -4.87504 -3.7921 -1.552 1.4806 34.9704 11.4089 -9.91394 -1.4655 -1.808 0.960905 36.5764 11.7542 -10.5043 -4.9141 -1.26899 0.359199 23.0291 0.809423 -1.00913 -3.1477 -1.68501 0.846205 28.9493 10.8665 -7.64327 -0.805498 -1.585 0.795495 28.9716 10.8733 -7.651 8.36701 -8.2066 0.598198 -13.5233 -3.27676 -7.1432 2.19231 -43.4631 -0.493208 0.361493 -0.443723 1.25967 0.733299 -45.8593 -2.6451 -11.7004 -0.960511 15.0215 -8.36699 -8.2066 0.5982 -4.16108 -17.9314 6.92416 -2.1923 -43.463 -0.493204 56.2989 62.6427 -47.2426 -0.733303 -45.8593 -2.64511 11.2501 -16.3037 19.1779 
